inDegrees=no
num_controls=7
num_derivatives=13
num_iterations=40
num_multipliers=7
num_parameters=0
num_slacks=7
num_states=26
objective=0.426615
objective_accelerations=0.057516
objective_balance=0.001162
objective_effort=0.015223
objective_height=0.346769
objective_ligament=0.005944
solver_duration=586.475410
status=Solve_Succeeded
success=true
DataType=double
version=3
OpenSimVersion=4.5
endheader
time	/jointset/ground_pelvis/pelvis_tilt/value	/jointset/ground_pelvis/pelvis_tx/value	/jointset/ground_pelvis/pelvis_ty/value	/jointset/hip_l/hip_flexion_l/value	/jointset/hip_l/hip_adduction_l/value	/jointset/hip_l/hip_rotation_l/value	/jointset/back/lumbar_extension/value	/jointset/patellofemoral_l/patellar_flexion_l/value	/jointset/knee_l/knee_flexion_l/value	/jointset/knee_l/knee_adduction_l/value	/jointset/knee_l/knee_rotation_l/value	/jointset/ankle_l/ankle_angle_l/value	/jointset/subtalar_l/subtalar_angle_l/value	/jointset/ground_pelvis/pelvis_tilt/speed	/jointset/ground_pelvis/pelvis_tx/speed	/jointset/ground_pelvis/pelvis_ty/speed	/jointset/hip_l/hip_flexion_l/speed	/jointset/hip_l/hip_adduction_l/speed	/jointset/hip_l/hip_rotation_l/speed	/jointset/back/lumbar_extension/speed	/jointset/patellofemoral_l/patellar_flexion_l/speed	/jointset/knee_l/knee_flexion_l/speed	/jointset/knee_l/knee_adduction_l/speed	/jointset/knee_l/knee_rotation_l/speed	/jointset/ankle_l/ankle_angle_l/speed	/jointset/subtalar_l/subtalar_angle_l/speed	/forceset/tau_hip_flexion_l	/forceset/tau_hip_adduction_l	/forceset/tau_hip_rotation_l	/forceset/tau_knee_flexion_l	/forceset/tau_ankle_angle_l	/forceset/tau_subtalar_angle_l	/forceset/tau_lumbar_extension	lambda_cid13_p0	lambda_cid13_p1	lambda_cid13_p2	lambda_cid13_p3	lambda_cid13_p4	lambda_cid13_p5	lambda_cid14_p0	/jointset/ground_pelvis/pelvis_tilt/accel	/jointset/ground_pelvis/pelvis_tx/accel	/jointset/ground_pelvis/pelvis_ty/accel	/jointset/hip_l/hip_flexion_l/accel	/jointset/hip_l/hip_adduction_l/accel	/jointset/hip_l/hip_rotation_l/accel	/jointset/back/lumbar_extension/accel	/jointset/patellofemoral_l/patellar_flexion_l/accel	/jointset/knee_l/knee_flexion_l/accel	/jointset/knee_l/knee_adduction_l/accel	/jointset/knee_l/knee_rotation_l/accel	/jointset/ankle_l/ankle_angle_l/accel	/jointset/subtalar_l/subtalar_angle_l/accel	gamma_cid13_p0	gamma_cid13_p1	gamma_cid13_p2	gamma_cid13_p3	gamma_cid13_p4	gamma_cid13_p5	gamma_cid14_p0
1	-0.4458532997251637	-0.001253019729804937	0.5974379986894478	1.686252855002265	-0.3465295262461104	0.1240570485394372	-0.4361889672807188	1.500846393520056	1.500846393519885	0.06959544146620628	-0.1742891748789371	0.4350086853954157	0.2496100755904507	-0.147844539394807	0.001245269623100294	0.02990747058457461	0.03877929887048333	0.001226625708633875	-0.05385653623592668	-0.001825475070769576	-0.1445595675508652	-0.1445595675508625	-0.001986927928283023	0.0006401489423854933	-0.047780432881822	-0.02683155715502665	-0.2345184328594421	0.08522870664396948	-0.01511079076914067	-0.2923576538579999	-0.01526089696585133	-0.01409698659566636	0.2057839932196467	-40.7440604711685	24.04214165802035	-16.43399791710273	3.848343262450125	-541.5991451958284	-29.17429002307328	-0.0238599264036447	1.436765186070039	0.2455150822372169	1.989716809797207	-6.567647296527657	-0.201435801633841	-1.480316769031412	-0.05096362059981713	-5.550607782790245	-5.550607782790404	-0.9033650662247045	-0.0190979867095339	-0.8993952403316215	-0.8623653222636622	-2.475513879388252e-10	-1.285108811458721e-07	-7.841301960439858e-08	-9.205943715195151e-09	-5.794200354777875e-09	-1.812285553604669e-07	9.5676607615956e-09
1.01	-0.44726057932851	-0.001228268868455366	0.5978363627984806	1.686313263459424	-0.3465268516622391	0.1234468207622805	-0.4362087443250782	1.499123631793563	1.499123631793498	0.0695288160562498	-0.174282376150984	0.434485892108417	0.2492994218601548	-0.133598295326258	0.003713153544722169	0.04975827352103274	-0.02669737671382108	-0.0006907798506910854	-0.06818658555371755	-0.00211889963070277	-0.1999914004889489	-0.1999914004889553	-0.01133537115933375	0.0007116735724777921	-0.05678764096071698	-0.03529770298366262	-0.2350483941708319	0.08518731896126354	-0.01514000759040435	-0.2913492572622464	-0.01571483476364114	-0.01402794154741164	0.2060909049490821	-40.84550853140703	23.97005128324899	-16.35412245816463	3.762558473644065	-541.4749069466503	-29.11572284123435	-0.02387595076078016	1.420517826246741	0.2486590119261878	1.981698462026827	-6.537642200328777	-0.1867352471145788	-1.408986808890014	-0.01687674649543222	-5.539266934726587	-5.53926693472799	-0.9501765114890648	0.01905577092735126	-0.9028036546910611	-0.8384756450653744	3.43936308651732e-10	-1.722162993977562e-07	-1.1133414403225e-07	-1.825754277609524e-08	-9.554021418263373e-09	-2.378610174366524e-07	1.234261916039154e-08
1.02	-0.4485250037293801	-0.001178592374930603	0.5984330222221703	1.685718912258529	-0.3465433195967691	0.1226933649328021	-0.4362311245895736	1.496846592560608	1.496846592560667	0.06936878770200995	-0.1742751065601298	0.4338727427280186	0.2489041593851926	-0.1192734988976957	0.006230396058138477	0.06956653351592428	-0.09217263273600106	-0.002601877971334092	-0.08250214670099273	-0.002346119102790945	-0.2554150688434016	-0.2554150688434162	-0.02066751678813541	0.000734321524917596	-0.06585165156051977	-0.04375330608837153	-0.2355783554823044	0.08514593127855762	-0.01516922441162253	-0.2903408606664738	-0.01616877256140362	-0.01395889649914106	0.2063978166784309	-40.94932271272165	23.89483548008419	-16.26970520530504	3.668586087275023	-541.4611740767153	-29.06628414222682	-0.02389467674615862	1.452475658072723	0.255386800596069	1.981208221483886	-6.567363384102746	-0.2001743138974379	-1.477419134928279	-0.03772260303010336	-5.54897486606407	-5.548974866064074	-0.9001055457748892	-0.02887332224003297	-0.9107557445132572	-0.8602567774782791	8.140359361745994e-10	-2.133621016380101e-07	-1.421758272810736e-07	-2.653017972506227e-08	-1.317974512467437e-08	-2.901598484967993e-07	1.484349824882062e-08
1.03	-0.4496459132470185	-0.001103464343174057	0.5992274607470325	1.684470106880854	-0.3465788217865937	0.1217968747806851	-0.4362551363744473	1.494015430948055	1.494015430948157	0.06911556539167889	-0.1742678054664342	0.4331685903644261	0.2484244398240528	-0.1049080888880788	0.00880671347350081	0.08930507514069583	-0.1575593736205061	-0.004493524993633419	-0.09678653900202661	-0.002414065064596393	-0.3108087732363256	-0.3108087732363235	-0.02997255165733066	0.0007221055015014606	-0.0749960622992108	-0.05218504221880325	-0.2359658345820485	0.08514044821420397	-0.01516379074824057	-0.2891019466033273	-0.01661285589267919	-0.01388074030106044	0.2066391304198034	-41.02866427463163	23.8014701919079	-16.17107794252417	3.54937153885621	-541.197609566504	-28.99216719844284	-0.02392017545849525	1.428621598404355	0.260472679893594	1.967759302819724	-6.519968543469189	-0.1828756059645546	-1.402551790323127	0.01499533046234813	-5.5332996448316	-5.533299644829249	-0.9450587646087404	0.01198455682007551	-0.9188810561466602	-0.8337361766619422	1.282896909931469e-09	-2.54481785347533e-07	-1.72996291742356e-07	-3.479486808105038e-08	-1.680410049070706e-08	-3.424144588322925e-07	1.734158060959288e-08
1.04	-0.450623159079367	-0.001002229443687768	0.6002188011221121	1.682568306273751	-0.3466330835885555	0.1207578202030355	-0.4362785624342811	1.490630586007788	1.490630586007946	0.06876942147124623	-0.1742607504731404	0.4323724744299225	0.2478605820724416	-0.09054076183850029	0.0114517696040865	0.1089469035594581	-0.2227716786188049	-0.006353800398675922	-0.1110150318083485	-0.002228974097625329	-0.3661517343862542	-0.3661517343862352	-0.03925183881120037	0.0006851014465825099	-0.08424436574188994	-0.06058094418268833	-0.2363533136818359	0.08513496514985451	-0.01515835708481573	-0.2878630325401626	-0.01705693922393301	-0.01380258410296051	0.2068804441611317	-41.11058222220741	23.705031547333	-16.06793462001457	3.422207681207394	-541.045988694018	-28.92800162976151	-0.02394849078959911	1.452859066065089	0.2691345436407015	1.961865580282032	-6.532476206861448	-0.1938999904460646	-1.466239235985901	0.01288478272602785	-5.538826217465044	-5.538826217465004	-0.8949560027097798	-0.03383092854060971	-0.9315342853109577	-0.8530899441689892	1.295135005414068e-09	-2.936228118003777e-07	-2.019111971816033e-07	-4.201405068643466e-08	-2.071972788638109e-08	-3.883022388755819e-07	1.929492786805147e-08
1.05	-0.4514565120532071	-0.000874139391217324	0.6014060208200707	1.680015149507799	-0.346705768564866	0.1195767808114217	-0.4362988760150391	1.486692669383187	1.486692669383367	0.06833067907128959	-0.1742541528190554	0.4314833742902933	0.2472130146052634	-0.0761089057326185	0.01418385171234204	0.1284754680444561	-0.287841419558652	-0.008176048884844933	-0.1251776477308881	-0.001791498913387687	-0.4214129205346381	-0.4214129205346251	-0.04849036044746056	0.0006340423976422098	-0.0935909307853174	-0.06892008617801784	-0.2366547936152124	0.08517148366397782	-0.01512052003978356	-0.2863567528250854	-0.01752724991749656	-0.01371748296713396	0.207094026497132	-41.18043051386935	23.59220509562857	-15.94931922880179	3.263820328430699	-540.6642340317834	-28.83236502475908	-0.02398178454137548	1.441488157779897	0.2778767549505108	1.945111715901867	-6.491484673191064	-0.1752758239903514	-1.388999003016985	0.06551536014190634	-5.516968579514522	-5.516968579515633	-0.9373793494728182	0.009131408259078334	-0.9385226065873782	-0.8223761200380755	1.293103635950597e-09	-3.327020052139513e-07	-2.30766553901412e-07	-4.920056123711258e-08	-2.464445753298142e-08	-4.339910554722399e-07	2.123125215456276e-08
1.06	-0.4521449186110046	-0.0007182021755591615	0.6027878781295386	1.676811843005315	-0.3467964537352951	0.1182545700140609	-0.4363135475492185	1.482202700143903	1.482202700144112	0.06779973563390254	-0.1742480907952016	0.4305003475016811	0.2464824457595674	-0.0615514786294986	0.01702120224162972	0.1478744258613227	-0.3528016259242937	-0.009953839222543431	-0.1392493129585882	-0.001100564774336815	-0.4765622573226037	-0.4765622573225973	-0.0576920462992664	0.0005779754018928499	-0.1030296955378971	-0.07718121988627324	-0.2369562735485865	0.08520800217810855	-0.01508268299471645	-0.2848504731099914	-0.01799756061104525	-0.01363238183128694	0.2073076088331373	-41.25314746170085	23.47637835855154	-15.82622444447639	3.097668155204284	-540.3964667023749	-28.74784334718341	-0.02401806115753982	1.477973265512767	0.290188227847084	1.935944246655741	-6.51056929202031	-0.1850083607519559	-1.448049097018027	0.06357657368946275	-5.516456345381436	-5.516456345381476	-0.8875888458189058	-0.03483251790244543	-0.9499742271415058	-0.8374882867542149	1.054666965718154e-09	-3.704894408472759e-07	-2.563729567923241e-07	-5.570005135082374e-08	-2.843670414358547e-08	-4.745308998720062e-07	2.250360607746173e-08
1.07	-0.4526869902382523	-0.0005333183860520952	0.6043630152412334	1.672959463719842	-0.3469046749150286	0.1167920408730168	-0.4363199589056591	1.477161878187896	1.477161878188064	0.06717708631993828	-0.1742426023859216	0.4294224579483316	0.2456697005447012	-0.0468282962588864	0.01997791164773265	0.1671254446787745	-0.4176592482387338	-0.01168148824822922	-0.1532409612895636	-0.0001314457986843629	-0.53157557177433	-0.5315755717743337	-0.06682603600513186	0.0005203401922609052	-0.1125645016355335	-0.08535088558828213	-0.2371864443721292	0.08529210130744573	-0.0150153898192946	-0.2830503806728973	-0.01855027750305983	-0.01353834962206429	0.2075021681453695	-41.33261846377598	23.34435757993346	-15.68513036672374	2.925567659294538	-539.9011725531328	-28.63130661279041	-0.02406018298870808	1.474673138443099	0.3017531710500595	1.91554143154975	-6.471111558302514	-0.1652576382656912	-1.372398061285559	0.1211186699048224	-5.489789445105336	-5.489789445107002	-0.9245646607721681	0.008784424770622277	-0.9576950360428099	-0.804066117906942	8.036555454448063e-10	-4.082081659603745e-07	-2.818065429902097e-07	-6.21629978242707e-08	-3.222190378418971e-08	-5.147968627719376e-07	2.374064242782813e-08
1.08	-0.453080793558672	-0.0003181993276737016	0.6061298346875552	1.668458957639799	-0.347029895477975	0.1151900601766368	-0.4363151712504235	1.471571718997364	1.47157171899749	0.06646344498336104	-0.1742376876392902	0.4282487280870099	0.2447757865916184	-0.03189781726393826	0.02306825601589481	0.186210892786755	-0.4824269848390478	-0.0133537158654748	-0.1671396240264696	0.001139237593066151	-0.5864297042275437	-0.5864297042275571	-0.07589045082306785	0.000463242873195123	-0.1221977571318971	-0.09341496752959963	-0.2374166151956158	0.08537620043679291	-0.01494809664384567	-0.2812502882357883	-0.01910299439506806	-0.01344431741282211	0.2076967274576635	-41.41532835885003	23.20946168030949	-15.53964578678759	2.74555552693053	-539.5226107457332	-28.52719542588937	-0.02410544806655336	1.519432590380037	0.3169152202588765	1.902830104761471	-6.492592149195056	-0.1739240790639077	-1.429451978204172	0.1238894569093343	-5.484619945678937	-5.484619945678904	-0.8736738682330073	-0.03472493978924315	-0.969664106887086	-0.8163715346159904	6.485565599018416e-10	-4.420049489352529e-07	-3.004974012333587e-07	-6.875382817402083e-08	-3.421827002813459e-08	-5.434153643882665e-07	2.345481499401217e-08
